<svg version="1.0" xmlns="http://www.w3.org/2000/svg" width="1510.667" height="1706.667" viewBox="0 0 1133 1280"><g fill="#68beb8"><path d="M35.6 22.2C27.7 24.4 21 34.1 21 43.1c.1 7.5 2.3 10.4 42.9 54.6 20.6 22.4 30.7 35.8 37.6 49.8 9.5 19.3 8.6-32.9 8 483-.3 250.8-.5 461.8-.5 469 0 31.5 6.7 63.9 17.6 85.7 20.7 41.5 56.2 63.4 114.1 70.3 11.1 1.4 52.3 1.7 314.8 2.4 316.6.8 311 .9 335.5-3.4 42.8-7.4 76.7-24.8 98.8-50.5 27-31.6 40.4-73.8 43.1-135.7.5-10.9.5-102.8 0-204.3-.4-101.5-1.3-296.4-1.9-433.1-.9-188.3-.9-251.6 0-260.5 2.1-20.9 6.8-34.3 16.9-47.6 2.8-3.7 16.8-19 31.1-34 14.4-15 27.3-29.1 28.8-31.2 2.4-3.5 2.7-4.9 2.7-11.7 0-7-.3-8.1-3-12-1.6-2.3-4.8-5.2-7-6.3-3.9-2.1-5.4-2.1-89.5-2.8-47-.3-248.6-1.1-448-1.7-199.4-.6-398.7-1.3-443-1.6-56.8-.3-81.7-.1-84.4.7zM532.5 65c240.4.5 453.4 1.3 473.4 1.6l36.3.6-7.9 8.2c-12.8 13.1-18.3 19.6-24 28.3-5.8 8.8-11.4 20.5-13.4 27.5-.6 2.4-1.4 3.8-1.6 3.1-.6-1.6 8-27.5 13.3-40.1 2.4-5.8 4.3-10.7 4.1-10.8-1-1-24.2 6.7-30.7 10.2-3.4 1.8-2.1 1.7 2.4-.1 2-.9 4.1-1.3 4.6-1 .6.4 1 .2 1-.3 0-.6.7-1.3 1.6-1.6 1.2-.5 1.1 0-.4 2.2-6.6 9.2-15.8 32-19.1 47.1-4.6 20.9-4.6 21.7-4.5 123.2l.2 96.6-6.7.7c-9.5.9-107.3 1.4-143.1.7-30.2-.6-30.5-.6-34.2 1.6-6 3.6-9.1 8.6-9.6 15.3-.5 7.1 1.8 12.9 7.8 19.4l4.3 4.6h82.6c45.4 0 86.3.3 90.8.7l8.3.6.2 71.8.3 71.7-11 .8c-6 .4-46.8.7-90.6.6l-79.7-.1-4 2.8c-10.8 7.9-10.7 22.3.3 33.8l4.2 4.3h86c47.3 0 88.1.3 90.7.6l4.6.7v78.6l-5.2.5c-7.2.8-640.7 2.2-683.3 1.6-18.7-.3-30.6-.7-26.5-.8 4.2-.1 6.9-.6 6.3-1-1-.7-1.3-56.8-1.5-271.9l-.3-271.1 5 2.5c2.8 1.4 4.6 2 4 1.5-.5-.6-6.4-3.8-13-7.1-20.9-10.3-46.3-18.5-77-24.6-14.4-2.9-51.8-8.6-52.4-7.9-.2.2 1.4 2.3 3.5 4.6 18.8 20.5 35.9 48.9 43.8 72.8 6.1 18.2 6.3 23.1 5.5 99.5-1.1 93-2.9 321.7-3 367.2V672H152V420.6c0-222.1-.2-252.3-1.5-259.5-5.1-26.6-19-51.6-44.1-79.4-4.9-5.4-10.6-11.8-12.6-14.1l-3.7-4.2 2.7.2c1.5.2 199.4.8 439.7 1.4zm456.2 199c.1 58.4-.2 96-.8 96-1 0-1.3-176-.3-185.9.4-3.3.7-6.1.8-6.1.1 0 .2 43.2.3 96zm.1 210.7l-.3 72.8-.5-72c-.3-39.6-.4-72.3-.2-72.8.2-.4.5-.7.8-.7.2 0 .3 32.7.2 72.7zm1 155c-.1 34.1-.3 37.8-.9 22.8-.9-24.2-1.1-62-.2-62.8.3-.4.8-.7 1-.7.2 0 .2 18.3.1 40.7zm-155.5 587c-12.7.2-33.9.2-47 0-13.1-.1-2.6-.2 23.2-.2 25.9 0 36.6.1 23.8.2z"/><path d="M269.4 131.9c.7 1.1 4.6 3.5 4.6 2.8 0-.3-1.2-1.2-2.6-2.2-1.5-.9-2.3-1.2-2-.6zm8.6 5.5c0 .2.8 1 1.8 1.7 1.5 1.3 1.6 1.2.3-.4s-2.1-2.1-2.1-1.3z"/></g></svg>